<?xml version="1.0" encoding="UTF-8" standalone="no"?>
<!-- Created with Inkscape (http://www.inkscape.org/) -->

<svg
   xmlns:dc="http://purl.org/dc/elements/1.1/"
   xmlns:cc="http://creativecommons.org/ns#"
   xmlns:rdf="http://www.w3.org/1999/02/22-rdf-syntax-ns#"
   xmlns:svg="http://www.w3.org/2000/svg"
   xmlns="http://www.w3.org/2000/svg"
   xmlns:sodipodi="http://sodipodi.sourceforge.net/DTD/sodipodi-0.dtd"
   xmlns:inkscape="http://www.inkscape.org/namespaces/inkscape"
   width="50.619598mm"
   height="58.34285mm"
   viewBox="0 0 50.619598 58.34285"
   version="1.1"
   id="svg1757"
   inkscape:version="0.92.2 (5c3e80d, 2017-08-06)"
   sodipodi:docname="logo.svg">
  <defs
     id="defs1751" />
  <sodipodi:namedview
     id="base"
     pagecolor="#ffffff"
     bordercolor="#666666"
     borderopacity="1.0"
     inkscape:pageopacity="0.0"
     inkscape:pageshadow="2"
     inkscape:zoom="0.35"
     inkscape:cx="-789.73188"
     inkscape:cy="-274.10894"
     inkscape:document-units="mm"
     inkscape:current-layer="layer1"
     showgrid="false"
     inkscape:window-width="1827"
     inkscape:window-height="1046"
     inkscape:window-x="-11"
     inkscape:window-y="-11"
     inkscape:window-maximized="1"
     fit-margin-top="0"
     fit-margin-left="0"
     fit-margin-right="0"
     fit-margin-bottom="0" />
  <metadata
     id="metadata1754">
    <rdf:RDF>
      <cc:Work
         rdf:about="">
        <dc:format>image/svg+xml</dc:format>
        <dc:type
           rdf:resource="http://purl.org/dc/dcmitype/StillImage" />
        <dc:title></dc:title>
      </cc:Work>
    </rdf:RDF>
  </metadata>
  <g
     inkscape:label="Layer 1"
     inkscape:groupmode="layer"
     id="layer1"
     transform="translate(-62.380678,-33.483339)">
    <path
       sodipodi:type="star"
       style="opacity:1;fill:#727272;fill-opacity:1;stroke:none;stroke-width:0.1;stroke-linecap:round;stroke-linejoin:round;stroke-miterlimit:4;stroke-dasharray:none;stroke-dashoffset:0;stroke-opacity:1"
       id="path6553-9-3"
       sodipodi:sides="3"
       sodipodi:cx="389.21964"
       sodipodi:cy="154.25589"
       sodipodi:r1="16.169565"
       sodipodi:r2="16.169565"
       sodipodi:arg1="0.71090937"
       sodipodi:arg2="1.7581069"
       inkscape:flatsided="false"
       inkscape:rounded="0"
       inkscape:randomized="0"
       d="m 401.47243,164.80691 -15.26385,5.33572 -12.25279,-10.55102 3.01105,-15.88674 15.26385,-5.33572 12.25279,10.55102 z"
       transform="matrix(1.7714648,-0.3416169,0.3416169,1.7714648,-654.49482,-77.640106)"
       inkscape:transform-center-x="-5.6143153e-005"
       inkscape:transform-center-y="-2.706195e-005" />
    <g
       id="g1633"
       transform="translate(3.0632195,14.494319)">
      <path
         sodipodi:nodetypes="ccccc"
         inkscape:connector-curvature="0"
         id="path8598-4-8-77"
         d="m 98.398034,37.587647 c 0.175,1.00287 0.25739,1.036014 0.81606,1.221635 -0.49563,0.225406 -0.77589,0.259199 -0.73095,1.436903 -0.14396,-0.832345 -0.1803,-1.193177 -0.796066,-1.391846 0.575551,-0.244664 0.685376,-0.262507 0.710956,-1.266692 z"
         style="opacity:0.95999995;fill:#ffffff;fill-opacity:1;stroke:none;stroke-width:0.095415px;stroke-linecap:butt;stroke-linejoin:miter;stroke-opacity:1" />
      <path
         sodipodi:nodetypes="ccccc"
         inkscape:connector-curvature="0"
         id="path8598-4-8-77-1"
         d="m 98.300069,40.533236 c 0.174996,1.002879 0.257379,1.036014 0.81606,1.221634 -0.495636,0.225407 -0.775895,0.259209 -0.730964,1.436904 -0.14396,-0.832336 -0.180276,-1.193168 -0.796045,-1.391846 0.57555,-0.244664 0.685356,-0.262507 0.710949,-1.266692 z"
         style="opacity:0.95999995;fill:#ffffff;fill-opacity:1;stroke:none;stroke-width:0.095415px;stroke-linecap:butt;stroke-linejoin:miter;stroke-opacity:1" />
      <ellipse
         ry="2.0790813"
         rx="3.4636753"
         cy="56.75695"
         cx="104.01366"
         id="path8953"
         style="opacity:1;fill:#fdba14;fill-opacity:1;stroke:#0d2659;stroke-width:0.09603622;stroke-linecap:round;stroke-linejoin:round;stroke-miterlimit:4;stroke-dasharray:none;stroke-dashoffset:0;stroke-opacity:1" />
      <path
         inkscape:connector-curvature="0"
         id="path8900"
         d="m 103.92432,47.54225 a 1.3080066,0.65568119 0 0 0 -1.30804,0.655681 1.3080066,0.65568119 0 0 0 0.4038,0.472873 1.3080066,0.65568119 0 0 0 -0.44566,0.492041 1.3080066,0.65568119 0 0 0 1.03062,0.640245 c -0.0138,0.341394 -0.045,0.687294 -0.10174,0.987181 a 1.6065617,1.0141818 0 0 0 -1.21373,0.982305 1.6065617,1.0141818 0 0 0 1.23159,0.985073 c 0.0733,1.549313 -0.50124,1.625154 -0.50124,1.625154 l 0.005,1.63e-4 a 2.1932676,1.345191 0 0 0 -1.2584,1.215164 2.1932676,1.345191 0 0 0 2.1934,1.345166 2.1932676,1.345191 0 0 0 2.19322,-1.345166 2.1932676,1.345191 0 0 0 -1.30802,-1.22979 h 0.004 c 0,0 -0.57398,-0.07588 -0.50142,-1.622875 a 1.6065617,1.0141818 0 0 0 1.15568,-0.972889 1.6065617,1.0141818 0 0 0 -1.13185,-0.968815 c -0.0602,-0.30597 -0.0933,-0.662332 -0.10753,-1.014315 a 1.3080066,0.65568119 0 0 0 0.92722,-0.626601 1.3080066,0.65568119 0 0 0 -0.40414,-0.472873 1.3080066,0.65568119 0 0 0 0.446,-0.492041 1.3080066,0.65568119 0 0 0 -1.30804,-0.655681 z"
         style="opacity:1;fill:#fdba14;fill-opacity:1;stroke:#0d2659;stroke-width:0.09603622;stroke-linecap:round;stroke-linejoin:round;stroke-miterlimit:4;stroke-dasharray:none;stroke-dashoffset:0;stroke-opacity:1" />
      <path
         sodipodi:nodetypes="ccsc"
         inkscape:connector-curvature="0"
         id="path8733"
         d="m 99.012311,40.246225 9.411079,0.0264 c -0.21981,4.811085 0.84783,7.461783 -4.38832,7.613448 -5.344436,0.15481 -4.570369,-3.339524 -5.022759,-7.639888 z"
         style="fill:#fdba14;fill-opacity:1;stroke:#0d2659;stroke-width:0.09603622;stroke-linecap:butt;stroke-linejoin:miter;stroke-miterlimit:4;stroke-dasharray:none;stroke-opacity:1" />
      <path
         style="fill:#e2e2e2;fill-opacity:1;stroke:#0d2659;stroke-width:0.04749147;stroke-linecap:butt;stroke-linejoin:miter;stroke-miterlimit:4;stroke-dasharray:none;stroke-opacity:1"
         d="m 99.297852,44.097299 c 3.023448,0.458527 5.989738,0.541262 9.047148,0 0.002,0.173275 0.002,0.344125 -0.0217,0.517264 -2.78734,0.538748 -6.07383,0.52232 -8.92905,0.04875 -0.0036,0.07344 -0.06741,-0.369501 -0.08011,-0.566026 z"
         id="path9817"
         inkscape:connector-curvature="0"
         sodipodi:nodetypes="cccccc" />
      <path
         sodipodi:nodetypes="cccccc"
         inkscape:connector-curvature="0"
         id="path9817-3"
         d="m 99.68643,45.585677 c 2.82762,0.459166 5.60182,0.542027 8.46123,0 0.002,0.173526 0.002,0.344611 -0.0203,0.517985 -2.60683,0.539495 -5.53276,0.526194 -8.203089,0.052 -0.0036,0.07353 -0.246917,-0.376296 -0.258722,-0.573099 z"
         style="fill:#e2e2e2;fill-opacity:1;stroke:#0d2659;stroke-width:0.04595989;stroke-linecap:butt;stroke-linejoin:miter;stroke-miterlimit:4;stroke-dasharray:none;stroke-opacity:1" />
      <g
         style="stroke:#0d2659;stroke-width:0.30000001;stroke-miterlimit:4;stroke-dasharray:none;stroke-opacity:1"
         transform="matrix(0.3201207,0,0,0.3201207,294.16784,65.642187)"
         id="g8898">
        <path
           sodipodi:type="star"
           style="opacity:1;fill:#dc1f28;fill-opacity:1;stroke:#0d2659;stroke-width:0.30000001;stroke-linecap:round;stroke-linejoin:round;stroke-miterlimit:4;stroke-dasharray:none;stroke-dashoffset:0;stroke-opacity:1"
           id="path8754"
           sodipodi:sides="5"
           sodipodi:cx="-579.6297"
           sodipodi:cy="-71.761452"
           sodipodi:r1="3.1959805"
           sodipodi:r2="3.0395584"
           sodipodi:arg1="0.65254479"
           sodipodi:arg2="1.2808633"
           inkscape:flatsided="true"
           inkscape:rounded="0"
           inkscape:randomized="0"
           d="m -577.09036,-69.820819 -3.60029,1.07411 -2.13409,-3.092162 2.28135,-2.985171 3.54404,1.247225 z"
           inkscape:transform-center-x="-0.27565438"
           transform="rotate(-19.473802,-562.85082,-25.682125)"
           inkscape:transform-center-y="0.23220392" />
        <path
           style="fill:#ef5281;fill-opacity:1;stroke:#0d2659;stroke-width:0.30000001;stroke-linecap:butt;stroke-linejoin:miter;stroke-miterlimit:4;stroke-dasharray:none;stroke-opacity:1"
           d="m -595.9135,-66.121911 c -0.40353,-0.544028 -0.80731,-1.087794 -1.21136,-1.631295 1.19367,-0.440848 3.00797,-1.006467 3.00797,-1.006467 l 3.07037,1.009267 -1.11038,1.630227 z"
           id="path8830"
           inkscape:connector-curvature="0"
           sodipodi:nodetypes="cccccc" />
        <path
           style="fill:#ef5281;fill-opacity:1;stroke:#0d2659;stroke-width:0.30000001;stroke-linecap:butt;stroke-linejoin:miter;stroke-miterlimit:4;stroke-dasharray:none;stroke-opacity:1"
           d="m -597.09383,-62.585817 c -0.64387,0.210342 -1.28755,0.420997 -1.93108,0.631996 -0.0397,-1.27185 -0.002,-3.171888 -0.002,-3.171888 l 1.90205,-2.627497 1.2225,1.604943 z"
           id="path8830-1"
           inkscape:connector-curvature="0"
           sodipodi:nodetypes="cccccc" />
        <path
           style="fill:#b11e33;fill-opacity:1;stroke:#0d2659;stroke-width:0.30000001;stroke-linecap:butt;stroke-linejoin:miter;stroke-miterlimit:4;stroke-dasharray:none;stroke-opacity:1"
           d="m -591.02149,-62.570375 c 0.64387,0.210342 1.28756,0.420997 1.93108,0.631996 0.0397,-1.27185 0.002,-3.171888 0.002,-3.171888 l -1.90205,-2.627497 -1.2225,1.604943 z"
           id="path8830-1-4"
           inkscape:connector-curvature="0"
           sodipodi:nodetypes="cccccc" />
        <path
           style="fill:#b11e33;fill-opacity:1;stroke:#0d2659;stroke-width:0.30000001;stroke-linecap:butt;stroke-linejoin:miter;stroke-miterlimit:4;stroke-dasharray:none;stroke-opacity:1"
           d="m -591.0306,-62.541855 c 0.64668,0.201501 1.29341,0.402697 1.94019,0.603476 -0.70445,1.05969 -1.83561,2.586786 -1.83561,2.586786 l -3.10733,1.064801 -0.0316,-2.04129 z"
           id="path8830-1-4-4"
           inkscape:connector-curvature="0"
           sodipodi:nodetypes="cccccc" />
        <path
           style="fill:#b11e33;fill-opacity:1;stroke:#0d2659;stroke-width:0.30000001;stroke-linecap:butt;stroke-linejoin:miter;stroke-miterlimit:4;stroke-dasharray:none;stroke-opacity:1"
           d="m -597.09922,-62.541855 c -0.64668,0.201501 -1.29341,0.402697 -1.94019,0.603476 0.70445,1.05969 1.83561,2.586786 1.83561,2.586786 l 3.17045,1.064801 -0.0316,-2.04129 z"
           id="path8830-1-4-4-5"
           inkscape:connector-curvature="0"
           sodipodi:nodetypes="cccccc" />
      </g>
      <ellipse
         ry="1.1224736"
         rx="5.0664353"
         cy="39.932102"
         cx="103.67336"
         id="path8953-7"
         style="opacity:1;fill:#fdba14;fill-opacity:1;stroke:#0d2659;stroke-width:0.09310468;stroke-linecap:round;stroke-linejoin:round;stroke-miterlimit:4;stroke-dasharray:none;stroke-dashoffset:0;stroke-opacity:1" />
      <ellipse
         ry="0.81299078"
         rx="4.4830012"
         cy="39.809982"
         cx="103.68054"
         id="path8953-7-8"
         style="opacity:1;fill:#d99b02;fill-opacity:1;stroke:#0d2659;stroke-width:0.08862155;stroke-linecap:round;stroke-linejoin:round;stroke-miterlimit:4;stroke-dasharray:none;stroke-dashoffset:0;stroke-opacity:1" />
      <path
         sodipodi:nodetypes="ccccc"
         inkscape:connector-curvature="0"
         id="path8598-8"
         d="m 100.7924,40.54613 c 0.32894,1.884949 0.48376,1.947246 1.53386,2.296129 -0.93162,0.423688 -1.45839,0.48721 -1.37391,2.700775 -0.27055,-1.564453 -0.33887,-2.242663 -1.496258,-2.616085 1.081778,-0.459869 1.288218,-0.493401 1.336308,-2.380819 z"
         style="opacity:0.95999995;fill:#ffffff;fill-opacity:1;stroke:none;stroke-width:0.17933922px;stroke-linecap:butt;stroke-linejoin:miter;stroke-opacity:1" />
    </g>
    <path
       style="fill:none;stroke:#969696;stroke-width:0.36046264;stroke-linecap:butt;stroke-linejoin:miter;stroke-miterlimit:4;stroke-dasharray:none;stroke-opacity:1"
       d="m 92.136937,89.486259 c 0.01388,-53.53542 0.01388,-53.53542 0.01388,-53.53542"
       id="path7754"
       inkscape:connector-curvature="0" />
    <g
       id="g9726"
       transform="matrix(1.0008331,0,0,1.0008331,345.5311,185.15391)">
      <g
         transform="matrix(0.9059574,0.03201056,-0.02247683,0.88354999,-25.885409,-7.0146274)"
         id="g9657">
        <path
           style="fill:#ef5281;fill-opacity:1;stroke:#0d2659;stroke-width:0.08804429px;stroke-linecap:butt;stroke-linejoin:miter;stroke-opacity:1"
           d="m -251.1706,-138.36839 0.90542,-2.20492 1.81085,-1.11642 0.12235,1.03269 -1.78637,2.45611 z"
           id="path8586"
           inkscape:connector-curvature="0" />
        <path
           style="fill:#ef5281;fill-opacity:1;stroke:#0d2659;stroke-width:0.08804429px;stroke-linecap:butt;stroke-linejoin:miter;stroke-opacity:1"
           d="m -248.45433,-141.68972 2.98545,-0.69776 3.03439,0.69775 -1.24802,0.83731 -4.64946,0.19538 z"
           id="path8588"
           inkscape:connector-curvature="0" />
        <path
           style="fill:#dc1f28;fill-opacity:1;stroke:#0d2659;stroke-width:0.08804429px;stroke-linecap:butt;stroke-linejoin:miter;stroke-opacity:1"
           d="m -248.33197,-140.65704 -1.78638,2.45611 3.64616,1.86999 4.2824,-1.59088 -1.49272,-2.9306 -4.64946,0.19538"
           id="path8590"
           inkscape:connector-curvature="0" />
        <path
           style="fill:#b11e33;fill-opacity:1;stroke:#0d2659;stroke-width:0.08804429px;stroke-linecap:butt;stroke-linejoin:miter;stroke-opacity:1"
           d="m -243.68251,-140.85242 1.24802,-0.8373 2.08003,1.47925 0.26917,2.31656 -2.1045,-0.0279 z"
           id="path8592"
           inkscape:connector-curvature="0" />
        <path
           sodipodi:nodetypes="cc"
           style="fill:#501616;fill-opacity:1;stroke:#0d2659;stroke-width:0.08804429px;stroke-linecap:butt;stroke-linejoin:miter;stroke-opacity:1"
           d="m -246.47219,-136.33094 0.3067,1.37126"
           id="path8584"
           inkscape:connector-curvature="0" />
        <path
           style="fill:#b11e33;fill-opacity:1;stroke:#0d2659;stroke-width:0.10671388;stroke-linecap:butt;stroke-linejoin:miter;stroke-miterlimit:4;stroke-dasharray:none;stroke-opacity:1"
           d="m -251.15523,-138.40966 1.48098,1.92221 3.41102,1.43798 -0.25287,-1.32716 -3.65709,-1.85672 z"
           id="path9606"
           inkscape:connector-curvature="0"
           sodipodi:nodetypes="cccccc" />
        <path
           style="fill:#b11e33;fill-opacity:1;stroke:#0d2659;stroke-width:0.10671388;stroke-linecap:butt;stroke-linejoin:miter;stroke-miterlimit:4;stroke-dasharray:none;stroke-opacity:1"
           d="m -246.29871,-135.0889 -0.22002,-1.31442 4.3317,-1.50853 2.13795,0.005 -2.40422,1.83131 z"
           id="path9608"
           inkscape:connector-curvature="0"
           sodipodi:nodetypes="cccccc" />
      </g>
      <path
         sodipodi:nodetypes="ccccc"
         inkscape:connector-curvature="0"
         id="path8598-6"
         d="m -243.6542,-140.87835 c 0.21353,1.2237 0.31405,1.26415 0.99577,1.49063 -0.6048,0.27507 -0.94677,0.31631 -0.89193,1.75334 -0.17564,-1.01564 -0.21999,-1.45593 -0.97136,-1.69835 0.70228,-0.29854 0.83631,-0.32032 0.86752,-1.54562 z"
         style="opacity:0.95999995;fill:#ffffff;fill-opacity:1;stroke:none;stroke-width:0.11642607px;stroke-linecap:butt;stroke-linejoin:miter;stroke-opacity:1" />
      <path
         sodipodi:nodetypes="ccccc"
         inkscape:connector-curvature="0"
         id="path8598-4-0"
         d="m -249.37294,-138.3168 c 0.17523,1.00414 0.25771,1.03733 0.81713,1.22318 -0.49629,0.22571 -0.77691,0.25956 -0.73191,1.43876 -0.14413,-0.83341 -0.18052,-1.1947 -0.79708,-1.39364 0.57629,-0.24498 0.68625,-0.26283 0.71186,-1.2683 z"
         style="opacity:0.95999995;fill:#ffffff;fill-opacity:1;stroke:none;stroke-width:0.09553751px;stroke-linecap:butt;stroke-linejoin:miter;stroke-opacity:1" />
      <path
         sodipodi:nodetypes="ccccc"
         inkscape:connector-curvature="0"
         id="path8598"
         d="m -247.73567,-141.03824 c 0.27205,1.55908 0.40012,1.6106 1.26868,1.89917 -0.77056,0.35044 -1.20626,0.40298 -1.13639,2.23386 -0.22377,-1.29399 -0.28027,-1.85495 -1.23758,-2.16381 0.89477,-0.38037 1.06552,-0.4081 1.10529,-1.96922 z"
         style="opacity:0.95999995;fill:#ffffff;fill-opacity:1;stroke:none;stroke-width:0.14833485px;stroke-linecap:butt;stroke-linejoin:miter;stroke-opacity:1" />
    </g>
    <g
       id="g9763"
       transform="matrix(1.0997844,0,0,1.0997844,370.70385,205.67365)"
       style="stroke:#000000;stroke-opacity:1">
      <g
         transform="rotate(-13.548693,-171.067,-98.969405)"
         id="g9468"
         style="stroke:#000000;stroke-opacity:1">
        <path
           style="fill:#da9c02;fill-opacity:1;stroke:#000000;stroke-width:0.065;stroke-linecap:butt;stroke-linejoin:miter;stroke-miterlimit:4;stroke-dasharray:none;stroke-opacity:1"
           d="m -238.48767,-133.45967 c -0.0799,-0.25158 -3.24132,-0.56134 -4.78977,-0.0267 -0.28166,-0.1273 -0.42288,-0.34695 -0.32649,-0.78357 0.29896,-1.06057 4.42151,-1.42648 6.43466,0.0246 -0.3603,0.45272 -1.33276,0.33292 -1.3184,0.78564 z"
           id="path9376"
           inkscape:connector-curvature="0"
           sodipodi:nodetypes="cccccc" />
        <path
           style="fill:#da9c02;fill-opacity:1;stroke:#000000;stroke-width:0.1;stroke-linecap:butt;stroke-linejoin:miter;stroke-miterlimit:4;stroke-dasharray:none;stroke-opacity:1"
           d="m -236.94971,-131.45427 c 0.55491,0.65422 0.0748,0.7603 -0.35091,0.99732 -2.2894,0.0412 -3.735,-2.24219 -3.92462,-3.38903 0.17528,-0.43067 0.58679,-0.57061 1.08043,-0.60947 0.62056,1.23561 1.49556,3.05387 3.1951,3.00118 z"
           id="path9393"
           inkscape:connector-curvature="0"
           sodipodi:nodetypes="ccccc" />
        <path
           style="fill:#fdba14;fill-opacity:1;stroke:#000000;stroke-width:0.1;stroke-linecap:butt;stroke-linejoin:miter;stroke-miterlimit:4;stroke-dasharray:none;stroke-opacity:1"
           d="m -238.40875,-133.57818 0.84034,0.84957 c -1.78314,1.86869 -5.36917,1.41963 -6.13165,0.27703 -0.23525,-0.53079 -0.13011,-1.19933 0.10154,-1.82842 -0.22465,1.43351 3.3387,2.23739 5.18977,0.70182 z"
           id="path9397"
           inkscape:connector-curvature="0"
           sodipodi:nodetypes="ccccc" />
        <path
           style="fill:#fdba14;fill-opacity:1;stroke:#000000;stroke-width:0.1;stroke-linecap:butt;stroke-linejoin:miter;stroke-miterlimit:4;stroke-dasharray:none;stroke-opacity:1"
           d="m -237.26368,-130.46843 c 1.64754,-0.45867 -1.84324,-5.19641 -3.94309,-3.38678 0.0572,-0.62918 0.0468,-1.32919 0.95114,-1.72683 1.66369,-0.1851 4.1973,1.32683 4.55256,3.68452 -0.22388,0.61859 -0.41307,1.03246 -1.56061,1.42909 z"
           id="path9395"
           inkscape:connector-curvature="0"
           sodipodi:nodetypes="ccccc" />
      </g>
      <path
         inkscape:transform-center-y="-49.233646"
         inkscape:transform-center-x="-5.1637781"
         style="fill:#ffffff;fill-opacity:1;stroke:none;stroke-width:0.13201505px;stroke-linecap:butt;stroke-linejoin:miter;stroke-opacity:1"
         d="m -246.94628,-119.43241 c -0.23526,1.2979 -0.35723,1.34514 -1.18448,1.61449 0.74379,0.26223 1.16198,0.28982 1.12473,1.80532 0.1935,-1.0772 0.23843,-1.54275 1.15042,-1.83214 -0.86322,-0.2823 -1.02728,-0.29946 -1.09067,-1.58767 z"
         id="path8598-4-8-7-1-6"
         inkscape:connector-curvature="0"
         sodipodi:nodetypes="ccccc" />
      <path
         inkscape:transform-center-y="-50.544167"
         inkscape:transform-center-x="-5.3012028"
         style="fill:#ffffff;fill-opacity:1;stroke:none;stroke-width:0.13552901px;stroke-linecap:butt;stroke-linejoin:miter;stroke-opacity:1"
         d="m -249.85232,-116.30527 c -0.24139,1.33242 -0.36671,1.38082 -1.21598,1.65747 0.76359,0.2692 1.19295,0.29743 1.15469,1.85323 0.19867,-1.10583 0.24482,-1.58374 1.18105,-1.88089 -0.88622,-0.28976 -1.0546,-0.30739 -1.11976,-1.62981 z"
         id="path8598-4-8-7-1-61"
         inkscape:connector-curvature="0"
         sodipodi:nodetypes="ccccc" />
      <path
         inkscape:transform-center-y="-29.770005"
         inkscape:transform-center-x="-3.1223717"
         style="fill:#ffffff;fill-opacity:1;stroke:none;stroke-width:0.07982527px;stroke-linecap:butt;stroke-linejoin:miter;stroke-opacity:1"
         d="m -246.23012,-120.40861 c -0.1421,0.78482 -0.21598,0.81324 -0.71616,0.9762 0.44972,0.15806 0.70265,0.17538 0.68008,1.09158 0.11697,-0.65134 0.14408,-0.93283 0.69562,-1.10782 -0.52198,-0.17057 -0.62116,-0.18095 -0.65954,-0.95996 z"
         id="path8598-4-8-7-1-1-6"
         inkscape:connector-curvature="0"
         sodipodi:nodetypes="ccccc" />
    </g>
    <g
       id="g9777"
       transform="matrix(1.1636521,0,0,1.1636521,387.42334,214.5056)"
       style="stroke:#727272;stroke-opacity:1">
      <g
         style="fill:#e2e2e2;fill-opacity:1;stroke:#727272;stroke-opacity:1"
         transform="matrix(1.2198919,0.78948746,-0.80213396,1.2116422,-82.436102,236.89672)"
         id="g7864">
        <path
           style="fill:#e2e2e2;fill-opacity:1;stroke:#727272;stroke-width:0.06623312px;stroke-linecap:butt;stroke-linejoin:round;stroke-opacity:1"
           d="m -233.12302,-144.96244 2.48893,-3.7113"
           id="path7786-7"
           inkscape:connector-curvature="0" />
        <path
           style="fill:#e2e2e2;fill-opacity:1;stroke:#727272;stroke-width:0.10013197;stroke-linecap:butt;stroke-linejoin:round;stroke-miterlimit:4;stroke-dasharray:none;stroke-opacity:1"
           d="m -233.12302,-144.96244 2.48893,-3.7113 -1.31074,0.23563 z"
           id="path7792-7"
           inkscape:connector-curvature="0" />
        <path
           style="fill:#f4f4f4;fill-opacity:1;stroke:#727272;stroke-width:0.06623312px;stroke-linecap:butt;stroke-linejoin:round;stroke-opacity:1"
           d="m -233.12302,-144.96244 1.17819,-3.47567 -2.29748,0.0147 z"
           id="path7794-8"
           inkscape:connector-curvature="0" />
        <path
           style="fill:#ffffff;fill-opacity:1;stroke:#727272;stroke-width:0.06623312px;stroke-linecap:butt;stroke-linejoin:round;stroke-opacity:1"
           d="m -233.12302,-144.96244 -1.11929,-3.46095 -1.32546,-0.29453 z"
           id="path7796-5"
           inkscape:connector-curvature="0" />
        <path
           style="fill:#ffffff;fill-opacity:1;stroke:#727272;stroke-width:0.06623312px;stroke-linecap:butt;stroke-linejoin:round;stroke-opacity:1"
           d="m -235.56777,-148.71792 0.9941,-0.86892 0.81,0.19145 -0.47864,0.972 z"
           id="path7798-6"
           inkscape:connector-curvature="0" />
        <path
           style="fill:#e2e2e2;fill-opacity:1;stroke:#727272;stroke-width:0.06623312px;stroke-linecap:butt;stroke-linejoin:round;stroke-opacity:1"
           d="m -231.94483,-148.43811 -0.44919,-0.92046 0.75847,-0.19882 1.00146,0.88365 z"
           id="path7804-1"
           inkscape:connector-curvature="0"
           sodipodi:nodetypes="ccccc" />
        <path
           style="fill:#f4f4f4;fill-opacity:1;stroke:#727272;stroke-width:0.06623312px;stroke-linecap:butt;stroke-linejoin:round;stroke-opacity:1"
           d="m -234.24231,-148.42339 0.47864,-0.972 1.36965,0.0368 0.44919,0.92046 z"
           id="path7806-5"
           inkscape:connector-curvature="0" />
        <path
           style="fill:#e2e2e2;fill-opacity:1;stroke:#727272;stroke-width:0.06623312px;stroke-linecap:butt;stroke-linejoin:round;stroke-opacity:1"
           d="m -234.57367,-149.58684 0.78055,-0.1841 1.3991,0.0147 0.75847,0.19882 -0.75847,0.19882 -1.36965,-0.0368 z"
           id="path7808-0"
           inkscape:connector-curvature="0" />
      </g>
      <path
         inkscape:transform-center-y="-62.959572"
         inkscape:transform-center-x="2.284549"
         style="fill:#ffffff;fill-opacity:1;stroke:none;stroke-width:0.10233606;stroke-linecap:butt;stroke-linejoin:miter;stroke-miterlimit:4;stroke-dasharray:none;stroke-opacity:1"
         d="m -251.00769,-132.1666 c -0.24886,1.63442 -0.36625,1.68841 -1.16104,1.99087 0.70518,0.36769 1.10389,0.42228 1.03998,2.34189 0.20491,-1.35651 0.25652,-1.94463 1.13262,-2.26839 -0.81886,-0.39868 -0.97515,-0.42819 -1.01156,-2.06437 z"
         id="path8598-4-8-7-1-6-7"
         inkscape:connector-curvature="0"
         sodipodi:nodetypes="ccccc" />
      <path
         inkscape:transform-center-y="-28.088808"
         inkscape:transform-center-x="1.5121593"
         style="fill:#ffffff;fill-opacity:1;stroke:none;stroke-width:0.09778091;stroke-linecap:butt;stroke-linejoin:miter;stroke-miterlimit:4;stroke-dasharray:none;stroke-opacity:1"
         d="m -249.13268,-131.82884 c -0.16462,0.72916 -0.2424,0.75327 -0.76849,0.8882 0.46676,0.16406 0.73068,0.18851 0.68837,1.04481 0.13556,-0.6052 0.16969,-0.86758 0.74968,-1.01202 -0.54198,-0.17787 -0.64544,-0.19088 -0.66956,-0.92099 z"
         id="path8598-4-8-7-1-1-6-4"
         inkscape:connector-curvature="0"
         sodipodi:nodetypes="ccccc" />
      <path
         inkscape:transform-center-y="-35.871909"
         inkscape:transform-center-x="1.6591815"
         style="fill:#ffffff;fill-opacity:1;stroke:none;stroke-width:0.11574779;stroke-linecap:butt;stroke-linejoin:miter;stroke-miterlimit:4;stroke-dasharray:none;stroke-opacity:1"
         d="m -251.59637,-128.55528 c -0.18064,0.93123 -0.26597,0.96201 -0.84321,1.13433 0.51217,0.20952 0.80175,0.24074 0.75532,1.33431 0.14873,-0.7729 0.18616,-1.10796 0.82255,-1.29245 -0.5947,-0.22716 -0.7082,-0.24374 -0.73466,-1.17619 z"
         id="path8598-4-8-7-1-1-6-4-6"
         inkscape:connector-curvature="0"
         sodipodi:nodetypes="ccccc" />
    </g>
    <path
       style="opacity:1;fill:#dadada;fill-opacity:1;stroke:none;stroke-width:0.18041036;stroke-linecap:round;stroke-linejoin:round;stroke-miterlimit:4;stroke-dasharray:none;stroke-dashoffset:0;stroke-opacity:1"
       inkscape:transform-center-x="-5.6143153e-005"
       inkscape:transform-center-y="-2.706195e-005"
       d="m 92.136947,89.486259 -4.353265,2.33993 -25.309794,-14.505 -0.09321,-29.17142 25.216602,-14.66643 4.553553,2.46751 z"
       id="path6553-9-3-4"
       inkscape:connector-curvature="0"
       sodipodi:nodetypes="ccccccc" />
    <g
       id="g9809"
       transform="matrix(0.90115657,0,0,0.90115657,323.46458,189.80956)"
       style="fill:#727272;fill-opacity:1">
      <g
         id="g9815"
         style="fill:#727272;fill-opacity:1">
        <text
           xml:space="preserve"
           style="font-style:normal;font-variant:normal;font-weight:normal;font-stretch:normal;font-size:9.87777805px;line-height:0;font-family:Arial;-inkscape-font-specification:Arial;letter-spacing:0px;word-spacing:0px;fill:#727272;fill-opacity:1;stroke:none;stroke-width:0.26458332"
           x="-288.71185"
           y="-134.3678"
           id="text9785"><tspan
             sodipodi:role="line"
             id="tspan9783"
             x="-288.71185"
             y="-134.3678"
             style="font-style:normal;font-variant:normal;font-weight:normal;font-stretch:normal;font-size:9.52499962px;font-family:Arial;-inkscape-font-specification:Arial;fill:#727272;fill-opacity:1;stroke-width:0.26458332">objects</tspan></text>
        <text
           xml:space="preserve"
           style="font-style:normal;font-variant:normal;font-weight:normal;font-stretch:normal;font-size:9.52499962px;line-height:0;font-family:Arial;-inkscape-font-specification:Arial;letter-spacing:0px;word-spacing:0px;fill:#727272;fill-opacity:1;stroke:none;stroke-width:0.26458332"
           x="-280.60913"
           y="-143.02213"
           id="text9785-2"><tspan
             sodipodi:role="line"
             id="tspan9783-0"
             x="-280.60913"
             y="-143.02213"
             style="font-style:normal;font-variant:normal;font-weight:normal;font-stretch:normal;font-size:9.52499962px;font-family:Arial;-inkscape-font-specification:Arial;fill:#727272;fill-opacity:1;stroke-width:0.26458332">shiny</tspan></text>
      </g>
    </g>
  </g>
</svg>
